<?xml version="1.0" encoding="UTF-8" standalone="no"?>
<!DOCTYPE svg PUBLIC "-//W3C//DTD SVG 1.1//EN" "http://www.w3.org/Graphics/SVG/1.1/DTD/svg11.dtd">
<svg width="100%" height="100%" viewBox="0 0 2047 1765" version="1.1" xmlns="http://www.w3.org/2000/svg" xmlns:xlink="http://www.w3.org/1999/xlink" xml:space="preserve" xmlns:serif="http://www.serif.com/" style="fill-rule:evenodd;clip-rule:evenodd;stroke-linejoin:round;stroke-miterlimit:2;">
    <g transform="matrix(1,0,0,1,-55.7842,-709.157)">
        <g>
            <g id="ESCAPE">
                <g id="Sombra" transform="matrix(4.27617,0,0,4.43078,108.181,1633.11)">
                    <path d="M124,144C126,158.233 134.349,174.818 146,183.581C158.851,193.247 170.812,182.614 171.907,169C172.299,164.122 172.253,159 171.91,154C171.503,148.183 169.668,142.631 168.335,137C165.346,124.372 161.903,110.386 151.96,101.184C144.602,94.375 133.292,93 127,85C125.314,82.514 122.77,79.358 123.377,76.109C123.88,73.41 126.492,72.122 128.99,73.137C130.406,73.712 132.186,73.793 133.166,74.926C134.656,76.652 135.239,79.554 137.325,80.397C142,82.48 149.88,81 155,81C154.972,71 152,62.416 148.895,53C143.916,38.247 137.587,23.096 127.367,11.09C119.587,2 104.264,-4.446 97.278,9.285C95.828,12.135 95.474,16 95.17,19C92.907,42.381 98.876,65.246 106.62,87C110.624,98.249 114.77,109.005 121.52,119C125.733,125.238 131.238,131.153 138,134.626C142.804,137.093 152,139.509 152.94,146C153.305,148.707 150.742,151.408 147.995,151.079C144.422,150.65 142,146.566 139,145.028C134.786,143 128.591,144 124,144ZM226,135L210,135C209.676,139.103 209.661,146.369 206.436,149.369C200.971,154.452 195.86,142 195.21,138C193.824,129.733 188.512,90.765 190.214,80C191,74.747 195.598,69.822 200,75.149C204,80 205,88.197 207,94L225,94C225,72.167 221.689,53 215.921,32C213,21.708 208,8.295 197.715,3.225C186,-2.471 176.63,4 172.641,15C166.41,32.429 167.787,51.801 168,70C168.186,85.345 170.312,101 172.541,116C175.099,133.369 178.833,154 187,169.715C188.949,173.199 191,177 193.529,180C201.229,189.671 214.296,189.182 220.175,178C227,164.813 226,149.368 226,135Z" style="fill:rgb(52,35,0);fill-rule:nonzero;stroke:black;stroke-opacity:0;stroke-width:4.78px;"/>
                    <path d="M3,2C3,8.124 15.723,32.335 19,40C33.904,73.131 77,159.275 82.219,170C84.472,174.757 86,182 90.39,185.397C93.417,188 98.379,187 102,187L128,187C127.603,178.307 117.82,154.634 115.442,153.028C112.807,151.313 95.966,153.008 92,151.397C87.661,149.561 85,141.144 83,137L106,137C105.438,126.059 99.415,115.242 95.861,105C94.474,101.003 93.606,95.424 89.671,93.028C87.026,91.472 69.646,93.337 65.213,91.397C62.249,90.1 56.583,75.424 55,71L85,71C83.203,62.077 79.396,53.359 77.28,45C72.28,30.393 67.611,16.327 62,2L3,2ZM252,2C248.704,24.824 248.185,43.371 245.714,62C242,91.687 238.713,121.212 235.83,151C234.657,163.126 233,174.781 233,187L246,187L248,169L265,169C266.077,173.111 264.526,183.098 265.782,186C268.347,188 274.903,187 278,187C279.499,169.494 278.385,148.358 279.72,130.613C280.348,116.563 282,31.555 282,2L252,2ZM288,187L300.583,187C301.789,181.437 306.248,162.697 306.999,159C307.684,155.631 308.97,150.124 311.589,147.603C314.555,144.748 320.522,146.845 324.24,145.947C329.971,144.563 333.936,139.652 337.229,135C344.736,124.383 348.57,112.113 352.796,100C359.323,81.288 364.26,62.732 366.17,43C367,33.074 367.469,23.851 364.365,14.174C360.085,0.828 343,2 332,2C326.421,2 319.858,0.707 317.482,7.019C314.176,15.802 313.829,25.813 312.575,35C310.442,50.624 307.551,66.417 304.919,82C300.868,106 289.033,175.818 288,187ZM335,187L359,187C362.6,187 367.482,187.824 370.867,186.397C374.397,185 385.658,161 387,152L362,152C362.249,149.515 364.715,139.265 366.939,137.788C373.198,133.76 384.574,140.607 390.351,135.397C393.004,133.004 407.351,103 409,92L384,92C384.385,89.04 387.841,76.128 390.51,73.318C393,70.693 416.161,72.775 422.61,70C427.646,66.76 430.286,57.147 432.677,52C437.42,42.042 441.484,32.165 445.85,22C448.645,15.491 451.832,9.184 452,2L412,2C407.352,2 399.363,0.488 395.275,3.028C391.242,5.532 389.836,12.808 388.52,17C385.141,28.049 381.454,39 377.975,50C376.565,54.507 374.96,58.54 373.684,63.015C365.157,89.68 355.912,116.292 347.652,143C343,157.779 336.95,171.573 335,187Z" style="fill:rgb(52,35,0);fill-rule:nonzero;stroke:black;stroke-opacity:0;stroke-width:4.78px;"/>
                    <g transform="matrix(1,0,0,1,0,0.24)">
                        <path d="M327,70C326.121,74.479 322,95.159 322,101C324.823,101 328.918,101.69 331.362,100C333.783,98.271 337.646,82.561 335.388,74.289C334.339,70.443 331,69.669 327,70Z" style="fill:white;fill-rule:nonzero;stroke:black;stroke-opacity:0;stroke-width:4.78px;"/>
                    </g>
                    <g transform="matrix(1,0,0,1,0,0.48)">
                        <path d="M261,83C258.774,91.325 255.111,122.611 255,128L263,128C263,117.585 262.811,87.316 261,83Z" style="fill:white;fill-rule:nonzero;stroke:black;stroke-opacity:0;stroke-width:4.78px;"/>
                    </g>
                </g>
                <g id="Escape">
                    <path d="M649.176,2230.4C668.305,2230.4 694.118,2226.24 711.676,2234.68C724.176,2241.09 734.268,2258.11 749.155,2259.9C760.601,2261.27 771.28,2250.01 769.76,2238.74C765.843,2211.69 727.526,2201.62 707.51,2191.34C679.335,2176.87 656.397,2152.23 638.843,2126.24C610.718,2084.59 593.443,2039.77 576.76,1992.9C544.493,1902.26 519.622,1806.99 529.051,1709.57C530.318,1697.07 531.793,1680.96 537.835,1669.09C566.943,1611.88 630.789,1638.74 663.205,1676.61C705.789,1726.63 732.16,1789.76 752.905,1851.24C765.843,1890.47 778.226,1926.24 778.343,1967.9C757.01,1967.9 724.176,1974.07 704.697,1965.39C696.006,1961.88 693.577,1949.79 687.366,1942.6C683.286,1937.87 675.869,1937.54 669.968,1935.14C659.559,1930.91 648.676,1936.28 646.58,1947.52C644.051,1961.06 654.651,1974.21 661.676,1984.57C687.893,2017.9 735.018,2023.63 765.676,2052C807.105,2090.34 821.451,2148.62 833.905,2201.24C839.459,2224.7 847.105,2247.83 848.801,2272.07C850.23,2292.9 850.422,2314.24 848.789,2334.57C844.226,2391.29 794.389,2435.6 740.843,2395.32C692.297,2358.81 657.51,2289.71 649.176,2230.4ZM1074.18,2192.9C1074.18,2252.77 1078.34,2317.12 1049.9,2372.07C1025.41,2418.66 970.964,2420.7 938.88,2380.4C928.343,2367.9 919.797,2352.06 911.676,2337.55C877.647,2272.07 862.089,2186.11 851.43,2113.74C842.143,2051.24 833.285,1986.01 832.51,1922.07C831.622,1846.24 825.885,1765.52 851.847,1692.9C868.468,1647.07 907.51,1620.11 956.322,1643.84C999.176,1664.96 1020.01,1720.85 1032.18,1763.74C1056.21,1851.24 1070.01,1931.1 1070.01,2022.07L995.01,2022.07C986.676,1997.89 982.51,1963.74 965.843,1943.52C947.501,1921.33 928.343,1941.85 925.068,1963.74C917.976,2008.59 940.11,2170.96 945.885,2205.4C948.593,2222.07 969.889,2273.95 992.66,2252.77C1006.1,2240.27 1006.16,2210 1007.51,2192.9L1074.18,2192.9ZM145.01,1638.74L390.843,1638.74C414.222,1698.43 433.676,1757.04 454.51,1817.9C463.326,1852.73 479.187,1889.06 486.676,1926.24L361.676,1926.24C368.272,1944.67 391.88,2005.82 404.23,2011.22C422.702,2019.3 495.117,2011.54 506.139,2018.02C522.535,2028 526.151,2051.25 531.93,2067.9C546.739,2110.58 571.835,2155.65 574.176,2201.24L478.343,2201.24C486.676,2218.5 497.764,2253.57 515.843,2261.22C532.368,2267.93 602.54,2260.87 613.518,2268.02C623.426,2274.71 664.189,2373.35 665.843,2409.57L557.51,2409.57C542.422,2409.57 521.747,2413.74 509.134,2402.89C490.843,2388.74 484.476,2358.56 475.089,2338.74C453.343,2294.05 273.776,1935.11 211.676,1797.07C198.022,1765.13 145.01,1664.25 145.01,1638.74ZM1182.51,1638.74L1307.51,1638.74C1307.51,1761.88 1300.63,2116.08 1298.01,2174.62C1292.45,2248.56 1297.09,2336.63 1290.84,2409.57C1277.94,2409.57 1250.62,2413.74 1239.93,2405.4C1234.7,2393.31 1241.16,2351.7 1236.68,2334.57L1165.84,2334.57L1157.51,2409.57L1103.34,2409.57C1103.34,2358.66 1110.25,2310.09 1115.13,2259.57C1127.15,2135.45 1140.84,2012.43 1156.32,1888.74C1166.61,1811.11 1168.78,1733.83 1182.51,1638.74ZM1220.01,1978.24C1210.73,2012.92 1195.47,2143.28 1195.01,2165.74L1228.34,2165.74C1228.34,2122.34 1227.56,1996.22 1220.01,1978.24ZM1332.51,2409.57C1336.81,2362.98 1386.13,2072.07 1403.01,1972.07C1413.97,1907.14 1426.02,1841.34 1434.9,1776.24C1440.13,1737.96 1441.58,1696.24 1455.35,1659.65C1465.25,1633.35 1492.6,1638.74 1515.84,1638.74C1561.68,1638.74 1632.87,1633.85 1650.7,1689.46C1663.63,1729.78 1661.68,1768.21 1658.22,1809.57C1650.26,1891.79 1629.69,1969.1 1602.49,2047.07C1584.88,2097.54 1568.91,2148.66 1537.63,2192.9C1523.91,2212.28 1507.39,2232.75 1483.51,2238.51C1468.02,2242.26 1443.15,2233.52 1430.8,2245.41C1419.88,2255.92 1414.53,2278.86 1411.67,2292.9C1408.54,2308.31 1389.96,2386.39 1384.94,2409.57L1332.51,2409.57ZM1495.01,1923.07C1491.35,1941.73 1474.18,2027.9 1474.18,2052.24C1485.94,2052.24 1503,2055.11 1513.18,2048.07C1523.27,2040.86 1539.37,1975.41 1529.96,1940.94C1525.59,1924.91 1511.68,1921.69 1495.01,1923.07ZM1528.34,2409.57C1536.47,2345.29 1561.68,2287.81 1581.06,2226.24C1615.48,2114.95 1654,2004.07 1689.53,1892.96C1694.84,1874.32 1701.53,1857.51 1707.4,1838.74C1721.9,1792.9 1737.26,1747.27 1751.34,1701.24C1756.83,1683.77 1762.68,1653.45 1779.49,1643.02C1796.52,1632.43 1829.81,1638.74 1849.18,1638.74L2015.84,1638.74C2015.14,1668.67 2001.86,1694.95 1990.22,1722.07C1972.03,1764.42 1955.09,1805.58 1935.33,1847.07C1925.37,1868.51 1914.37,1908.57 1893.38,1922.07C1866.51,1933.63 1770.01,1924.96 1759.63,1935.89C1748.51,1947.6 1734.11,2001.4 1732.51,2013.74L1836.68,2013.74C1829.81,2059.57 1770.03,2184.59 1758.97,2194.56C1734.9,2216.26 1687.5,2187.74 1661.42,2204.52C1652.15,2210.67 1641.88,2253.38 1640.84,2263.74L1745.01,2263.74C1739.42,2301.24 1692.5,2401.24 1677.79,2407.06C1663.68,2413 1643.34,2409.57 1628.34,2409.57L1528.34,2409.57Z" style="fill:rgb(223,173,122);stroke:black;stroke-opacity:0;stroke-width:20.83px;"/>
                </g>
            </g>
            <g id="Fruity" transform="matrix(0.99987,-0.0161478,0.0161478,0.99987,-14.0675,-155.558)">
                <g transform="matrix(0.73643,-0.676514,0.676514,0.73643,-687.522,955.443)">
                    <g transform="matrix(0.633651,-0.107161,0.166749,0.985999,-67.7913,64.1642)">
                        <text x="423.957px" y="1337.99px" style="font-family:'RubikMonoOne-Regular', 'Rubik Mono One';font-size:350px;">F</text>
                    </g>
                    <g transform="matrix(0.631981,0.116604,-0.181444,0.983401,459.118,-50.3103)">
                        <text x="614.296px" y="1284.4px" style="font-family:'RubikMonoOne-Regular', 'Rubik Mono One';font-size:350px;">R</text>
                    </g>
                    <g transform="matrix(0.561353,0.312857,-0.486825,0.8735,989.103,-88.8307)">
                        <text x="810.253px" y="1301.68px" style="font-family:'RubikMonoOne-Regular', 'Rubik Mono One';font-size:350px;">U</text>
                    </g>
                    <g transform="matrix(0.235441,0.597967,-0.930473,0.36636,2278.31,284.407)">
                        <text x="1132.72px" y="1517.8px" style="font-family:'RubikMonoOne-Regular', 'Rubik Mono One';font-size:350px;">I</text>
                    </g>
                    <g transform="matrix(0.0244432,0.642183,-0.999276,0.0380351,2877.64,841.748)">
                        <text x="1219.52px" y="1689.15px" style="font-family:'RubikMonoOne-Regular', 'Rubik Mono One';font-size:350px;">T</text>
                    </g>
                    <g transform="matrix(-0.189119,0.614191,-0.955719,-0.294281,3277.47,1669.17)">
                        <text x="1244.9px" y="1880.4px" style="font-family:'RubikMonoOne-Regular', 'Rubik Mono One';font-size:350px;">Y</text>
                    </g>
                </g>
                <g transform="matrix(0.73643,-0.676514,0.676514,0.73643,-687.522,940.443)">
                    <g transform="matrix(0.633651,-0.107161,0.166749,0.985999,-67.7913,64.1642)">
                        <text x="423.957px" y="1337.99px" style="font-family:'RubikMonoOne-Regular', 'Rubik Mono One';font-size:350px;fill:rgb(255,26,0);">F</text>
                    </g>
                    <g transform="matrix(0.631981,0.116604,-0.181444,0.983401,459.118,-50.3103)">
                        <text x="614.296px" y="1284.4px" style="font-family:'RubikMonoOne-Regular', 'Rubik Mono One';font-size:350px;fill:rgb(255,26,0);">R</text>
                    </g>
                    <g transform="matrix(0.561353,0.312857,-0.486825,0.8735,989.103,-88.8307)">
                        <text x="810.253px" y="1301.68px" style="font-family:'RubikMonoOne-Regular', 'Rubik Mono One';font-size:350px;fill:rgb(255,26,0);">U</text>
                    </g>
                    <g transform="matrix(0.235441,0.597967,-0.930473,0.36636,2278.31,284.407)">
                        <text x="1132.72px" y="1517.8px" style="font-family:'RubikMonoOne-Regular', 'Rubik Mono One';font-size:350px;fill:rgb(255,26,0);">I</text>
                    </g>
                    <g transform="matrix(0.0244432,0.642183,-0.999276,0.0380351,2877.64,841.748)">
                        <text x="1219.52px" y="1689.15px" style="font-family:'RubikMonoOne-Regular', 'Rubik Mono One';font-size:350px;fill:rgb(255,26,0);">T</text>
                    </g>
                    <g transform="matrix(-0.189119,0.614191,-0.955719,-0.294281,3277.47,1669.17)">
                        <text x="1244.9px" y="1880.4px" style="font-family:'RubikMonoOne-Regular', 'Rubik Mono One';font-size:350px;fill:rgb(255,26,0);">Y</text>
                    </g>
                </g>
            </g>
            <g id="PALO-CESTA" serif:id="PALO CESTA" transform="matrix(1,0,0,1,14.7698,-117.622)">
                <g id="Palo-cesta" serif:id="Palo cesta" transform="matrix(1,0,0,1,-14.7559,15.0595)">
                    <path d="M1083.76,1397.65L1078.87,863.075" style="fill:none;stroke:black;stroke-width:45px;stroke-linecap:square;stroke-miterlimit:1;"/>
                </g>
                <g id="Palo-cesta1" serif:id="Palo cesta" transform="matrix(1,0,0,1,-14.7559,-0.940507)">
                    <path d="M1083.76,1397.65L1078.87,863.075" style="fill:none;stroke:rgb(223,173,122);stroke-width:50px;stroke-linecap:square;stroke-miterlimit:1;"/>
                </g>
            </g>
            <g id="UNION-CESTA" serif:id="UNION CESTA" transform="matrix(1,0,0,1,15.8849,-126.211)">
                <g id="Uni贸n-cesta" serif:id="Uni贸n cesta" transform="matrix(1.26694,0,0,1.07203,-349.512,-74.239)">
                    <ellipse cx="1119.63" cy="1516.04" rx="39.465" ry="46.641" style="fill:none;stroke:rgb(3,2,0);stroke-width:38.35px;stroke-linecap:round;stroke-miterlimit:1;"/>
                </g>
                <g id="Uni贸n-cesta1" serif:id="Uni贸n cesta" transform="matrix(1.26694,0,0,1.07203,-349.512,-82.239)">
                    <ellipse cx="1119.63" cy="1516.04" rx="39.465" ry="46.641" style="fill:none;stroke:rgb(223,173,122);stroke-width:38.35px;stroke-linecap:round;stroke-miterlimit:1;"/>
                </g>
            </g>
            <g id="mantel" transform="matrix(-1.03245,-1.26439e-16,8.41448e-17,-0.687095,2203.14,1891.25)">
                <path d="M138.736,415.664L138.816,515.598L238.682,516.011L238.573,415.341L338.525,414.735L338.653,515.931L438.623,516.019L438.631,415.92L538.531,415.911L538.629,515.994L638.521,515.98L638.521,415.731L738.848,415.972L738.581,515.96L838.678,515.995L838.448,416.012L938.543,416.029L938.844,515.91L1038.68,516.353L1039.07,415.817L1138.78,415.695L1138.62,515.894L1238.71,515.749L1238.66,415.802L1338.79,415.816L1338.28,515.749L1438.67,515.796L1438.72,415.929L1538.6,415.978L1538.6,515.992L1638.71,515.815L1638.77,415.889L1738.64,415.606L1738.73,516.094L1838.67,515.875L1838.7,415.886L1938.53,415.717L1939.25,515.754L2038.39,515.821L2038.76,415.928" style="fill:none;stroke:black;stroke-width:68.42px;stroke-linecap:square;stroke-miterlimit:1;"/>
            </g>
            <g id="mantel1" serif:id="mantel" transform="matrix(-1.03245,-1.26439e-16,8.41448e-17,-0.687095,2203.14,1885.25)">
                <path d="M138.736,415.664L138.816,515.598L238.682,516.011L238.573,415.341L338.525,414.735L338.653,515.931L438.623,516.019L438.631,415.92L538.531,415.911L538.629,515.994L638.521,515.98L638.521,415.731L738.848,415.972L738.581,515.96L838.678,515.995L838.448,416.012L938.543,416.029L938.844,515.91L1038.68,516.353L1039.07,415.817L1138.78,415.695L1138.62,515.894L1238.71,515.749L1238.66,415.802L1338.79,415.816L1338.28,515.749L1438.67,515.796L1438.72,415.929L1538.6,415.978L1538.6,515.992L1638.71,515.815L1638.77,415.889L1738.64,415.606L1738.73,516.094L1838.67,515.875L1838.7,415.886L1938.53,415.717L1939.25,515.754L2038.39,515.821L2038.76,415.928" style="fill:none;stroke:rgb(219,201,179);stroke-width:68.42px;stroke-linecap:square;stroke-miterlimit:1;"/>
            </g>
        </g>
    </g>
</svg>
